# xmcd CD database file
#
# Track frame offsets:
#	150
#	4845
#	22336
#	28332
#	49184
#	76910
#	84539
#	92883
#	107258
#	126876
#	147126
#	160279
#	184192
#	205239
#	210403
#	229011
#	253032
#	271682
#	289353
#	315427
#
# Disc length: 4618 seconds
#
# Revision: 1
# Processed by: cddbd v1.5.2PL0 Copyright (c) Steve Scherf et al.
# Submitted via: CDex 1.60beta1
#
DISCID=14120814
DTITLE=DJ MITSU THE BEATS - BLUE IMPRESSIONS - BLUE NOTE MIX BY DJ MITSU THE BEATS
DYEAR=2004
DGENRE=Jazz
TTITLE0=Montara [Bobby Hutcherson]
TTITLE1=Montara [Bobby Hutcherson] [The Roots Remix]
TTITLE2=Distant Land [Madlib]
TTITLE3=Distant Land [Donald Byrd]
TTITLE4=UIno Esta [Bobbi Humphrey]
TTITLE5=Tuesday Heartbreak [Ronnie Foster]
TTITLE6=New York Times [Bobbi Humphrey]
TTITLE7=New York Times [Bobbi Humphrey] [DJ Spinna Remix]
TTITLE8=Clap! [Soulive]
TTITLE9=Koko and Lee Roe [Gene Harris]
TTITLE10=Abdullah and Abraham [Chico Hamilton]
TTITLE11=Think Twice [Donald Byrd]
TTITLE12=Tidal Wave [Ronnie Laws]
TTITLE13=Ode to Billie Joe [Lou Donaldson]
TTITLE14=Rain Every Thirsday [Bobby Hutcherson]
TTITLE15=Who Knows What [Brother Jack Mcduff]
TTITLE16=Crying Angels [Alphonze Mouzon]
TTITLE17=Alfie's Theme [John Patton]
TTITLE18=Sweet Pea [Booker Ervin]
TTITLE19=Cirrus [Bobby Hutcherson]
EXTD=YEAR: 2004
EXTT0=
EXTT1=
EXTT2=
EXTT3=
EXTT4=
EXTT5=
EXTT6=
EXTT7=
EXTT8=
EXTT9=
EXTT10=
EXTT11=
EXTT12=
EXTT13=
EXTT14=
EXTT15=
EXTT16=
EXTT17=
EXTT18=
EXTT19=
PLAYORDER=
